<svg id="Ebene_1" data-name="Ebene 1" xmlns="http://www.w3.org/2000/svg" viewBox="0 0 166 192"><defs><style>.cls-1{fill:#abe0e7;}.cls-2{fill:#d7c7be;}</style></defs><path class="cls-1" d="M39.83,114.52c-.18-7.68,3-14.42,5.49-21.3,5.66-15.54,11.44-31,17.17-46.57q6-16.32,12.07-32.65c1-2.72,2-5.46,5-6.76,4.6-2,8.11-.84,10,3.8,2.4,5.74,4.52,11.6,6.69,17.44Q106,54.63,115.69,80.79c3.67,9.93,7.29,19.89,8.21,30.54a42.44,42.44,0,0,1-45.72,46c-16.69-1.29-32.09-14.4-36.4-31.21C40.81,122.32,40.46,118.38,39.83,114.52Z"/><path class="cls-2" d="M7.33,117.65H25.87c1.82,6.61,3.1,13.09,5.39,19.18,6.5,17.29,20,27,37.19,31.49,22.92,6,44.87-2.67,59.27-22.27a51.76,51.76,0,0,0,9.84-24.68c.49-3.88.52-3.87,4.49-3.87,4.54,0,9.07.12,13.6,0,2.22-.08,2.92.48,2.9,2.81-.11,15.21-.06,30.41-.06,45.62,0,2.48.14,5,0,7.43-.53,9-7.13,15.31-15.76,15.3q-46-.06-92.09-.09c-9.15,0-18.3,0-27.45.07C13.85,188.63,7,181.87,7,172.13c-.08-17.91.06-35.82.11-53.74A3.28,3.28,0,0,1,7.33,117.65Z"/></svg>